<?xml version="1.0" encoding="UTF-8"?>
<!DOCTYPE svg PUBLIC "-//W3C//DTD SVG 1.1//EN" "http://www.w3.org/Graphics/SVG/1.1/DTD/svg11.dtd">
<!-- Creator: CorelDRAW 2018 (64 Bit Versión de evaluación) -->
<svg xmlns="http://www.w3.org/2000/svg" xml:space="preserve" width="979px" height="979px" version="1.1" style="shape-rendering:geometricPrecision; text-rendering:geometricPrecision; image-rendering:optimizeQuality; fill-rule:evenodd; clip-rule:evenodd"
viewBox="0 0 859.157 859.651"
 xmlns:xlink="http://www.w3.org/1999/xlink">
 <defs>
  <style type="text/css">
   <![CDATA[
    .fil0 {fill:#FEFEFE}
   ]]>
  </style>
 </defs>
 <g id="Capa_x0020_1">
  <metadata id="CorelCorpID_0Corel-Layer"/>
  <g id="_2264026489824">
   <path class="fil0" d="M166.335 751.738l0 0zm0 0l104.701 -105.639c4.76,3.039 9.215,5.981 14.906,9.809 66.754,44.904 158.316,53.479 233.632,28.389 13.866,-4.619 25.079,-9.149 37.592,-15.451 12.244,-6.165 21.939,-13.413 33.507,-19.535l104.709 103.802c-20.318,-0.896 -49.792,-10.872 -81.602,-2.047 -41.104,11.403 -81.818,42.098 -117.462,65.443 -81.544,53.407 -112.743,9.434 -187.4,-35.424 -32.668,-19.629 -61.25,-35.488 -102.415,-34.91 -15.019,0.211 -27.633,5.283 -40.168,5.563zm585.294 -58.53l0 0zm-310.937 -12.803l-16.462 0c-69.992,0 -135.265,-37.212 -170.56,-72.703 -41.312,-41.542 -76.361,-105.664 -76.361,-168.731 0,-59.826 2.307,-71.894 24.526,-125.456l10.977 -20.117c27.623,-46.141 66.315,-79.848 115.078,-102.578 93.795,-43.719 212.736,-21.072 284.278,51.067 22.843,23.033 36.867,43.316 52.291,73.915 15.252,30.259 21.298,62.264 24.911,103.17 2.291,25.943 -9.365,81.449 -20.636,105.376 -14.149,30.037 -27.544,53.49 -51.082,76.951 -26.998,26.911 -26.214,25.006 -52.581,42.529 -29.524,19.621 -82.459,36.577 -124.379,36.577zm-332.887 -513.962l101.051 100.145c-56.915,84.12 -69.208,198.543 -16.837,289.364 5.16,8.948 18.566,27.472 20.042,33.001l-105.631 106.538c0.896,-20.318 10.872,-49.793 2.047,-81.603 -15.955,-57.51 -64.022,-105.946 -81.686,-146.945 -23.292,-54.065 6.274,-85.997 33.818,-130.04 24.815,-39.682 54.369,-78.865 52.746,-130.278 -0.462,-14.646 -5.388,-32.926 -5.55,-40.182zm643.824 526.765l-101.981 -101.043c18.159,-27.721 24.449,-32.529 38.515,-68.508 32.112,-82.141 20.906,-170.37 -22.837,-243.475 -3.939,-6.584 -7.321,-10.534 -10.636,-16.8l98.315 -99.221c-0.897,20.319 -10.872,49.792 -2.047,81.602 11.524,41.543 42.26,82.264 65.449,117.456 12.124,18.399 25.314,43.721 24.964,66.638 -1.01,66.214 -98.105,134.032 -95.291,223.17 0.233,7.397 1.214,11.799 2.189,19.764 0.812,6.639 3.194,12.95 3.36,20.417zm-643.824 -526.765l0 0zm585.295 -58.529l0 0zm0 0l-96.487 97.392c-13.205,-9.179 -18.252,-13.966 -33.963,-21.813 -30.09,-15.031 -70.314,-30.622 -105.499,-31.68 -33.77,-1.016 -11.411,-2.865 -52.925,0.113 -39.583,2.839 -88.701,21.646 -121.204,43.41 -6.794,4.55 -12.924,10.013 -17.919,11.346l-101.05 -100.144c20.318,0.897 49.792,10.872 81.602,2.047 23.966,-6.648 43.039,-17.606 62.31,-29.143 80.216,-48.021 100.098,-88.571 187.028,-36.804 40.193,23.935 69.792,50.721 117.386,65.519 39.875,12.398 59.575,0.228 80.721,-0.243zm-556.03 -9.146c0,15.547 98.823,98.947 113.401,120.718 -6.656,9.939 -26.405,22.212 -29.265,32.923 -7.546,-5.053 -85.753,-84.837 -99.226,-98.312 -4.82,-4.821 -11.068,-13.243 -17.57,-15.57 -7.24,-2.591 -18.553,2.336 -18.553,11.455 0,34.137 27.069,53.195 -9.751,127.427l-43.659 69.742c-43.186,63.946 -41.861,97.47 -4.349,158.724 6.727,10.986 13.267,20.002 20.445,30.768 35.544,53.315 55.193,85.402 40.211,152.146 -1.192,5.313 -4.839,16.517 -4.317,20.577 0.699,5.437 7.656,13.107 14.223,13.107 10.823,0 54.709,-48.308 64.474,-58.073l61.73 -60.815c2.84,2.08 11.203,12.119 15.073,16.021 5.935,5.982 11.907,8.929 16.021,15.073 -8.877,13.256 -113.092,110.746 -116.983,119.163 -3.836,8.298 1.843,19.844 10.898,19.844 10.289,0 18.659,-3.53 27.555,-5.369 41.414,-8.562 61.83,-3.749 99.872,15.12 45.912,22.773 101.229,76.214 154.247,76.214 67.51,0 136.191,-94.285 212.167,-94.113 26.759,0.06 62.524,9.956 65.543,9.568 5.438,-0.699 13.107,-7.656 13.107,-14.223 0,-10.796 -47.396,-53.798 -57.157,-63.56l-59.901 -60.815c17.475,-11.702 22.302,-22.153 32.923,-29.265 15.896,10.645 106.745,110.285 116.796,113.882 7.24,2.59 18.553,-2.337 18.553,-11.455 0,-34.137 -27.069,-53.195 9.751,-127.427l43.659 -69.742c67.23,-99.55 16.202,-135.012 -35.919,-220.884 -48.3,-79.576 -13.609,-122.18 -16.071,-141.331 -0.699,-5.438 -7.656,-13.107 -14.223,-13.107 -15.494,0 -97.323,97.131 -118.889,111.571 -8.29,-12.38 -18.689,-22.788 -31.093,-31.093l63.559 -64.474c6.531,-6.531 44.275,-41.987 46.664,-48.665 2.591,-7.24 -2.336,-18.553 -11.455,-18.553 -10.289,0 -18.658,3.53 -27.554,5.369 -41.415,8.562 -61.83,3.749 -99.873,-15.12 -46.221,-22.927 -100.661,-76.214 -154.246,-76.214 -55.356,0 -113.282,64.159 -170.334,85.732 -53.429,20.204 -95.641,-2.695 -107.377,-1.187 -5.437,0.699 -13.107,7.657 -13.107,14.223z"/>
   <path class="fil0" d="M393.136 415.193l40.24 -34.752c4.617,6.896 10.507,11.819 17.518,17.234 2.803,2.165 17.848,15.861 19.062,17.518 -4.933,21.177 -22.983,48.199 -38.409,58.53 -24.16,-16.178 -30.328,-41.686 -38.411,-58.53zm-56.7 21.949c-111.463,25.968 15.774,76.82 82.307,76.82 41.354,0 63.579,0.117 102.725,-14.335 15.12,-5.582 49.086,-21.006 49.086,-38.708 0,-9.517 -25.814,-21.751 -34.241,-26.118 -11.543,-5.981 -7.544,-15.441 -20.61,-41.577 -7.07,-14.145 -15.231,-25.126 -27.927,-34.26 -5.222,-3.757 -13.776,-8.365 -20.484,-10.611 -4.35,-1.456 -7.201,-1.407 -11.065,-3.567 -14.52,-8.118 4.712,-6.413 -44.8,-6.413 -9.372,0 0.708,3.403 -12.31,7.81 -29.575,10.011 -41.914,21.242 -54.624,55.119 -3.21,8.558 -8.057,25.482 -8.057,35.84z"/>
   <path class="fil0" d="M376.675 632.85c23.806,0 116.282,2.565 132.285,-3.065 17.002,-5.981 17.091,-20.666 -9.506,-30.091 -22.438,-7.952 -26.64,-13.406 -34.654,-45.824 -10.01,-40.493 13.856,-32.592 -60.689,-32.592 -0.505,22.651 -7.964,65.348 -29.21,75.046 -5.829,2.66 -12.653,3.816 -18.901,6.706 -24.759,11.453 -13.257,29.82 20.675,29.82z"/>
   <path class="fil0" d="M224.864 400.561c0,72.402 16.702,43.612 -18.29,109.743 12.069,2.812 19.855,9.145 36.581,9.145 16.729,0 27.205,-3.658 42.068,-3.658 -1.341,-16.113 -18.291,-28.104 -18.291,-54.872 0,-36.792 32.505,-71.332 -21.948,-71.332 -7.96,0 -20.12,3.505 -20.12,10.974z"/>
   <path class="fil0" d="M327.291 358.493c-2.068,-7.743 -8.795,-10.475 -12.803,-16.461 4.149,-6.198 5.646,-6.251 11.244,-10.705l25.337 -22.218c5.003,-3.844 7.848,-7.657 12.803,-10.975 2.455,1.645 14.6,15.512 16.461,18.291 -4.119,2.758 -9.484,6.786 -13.282,10.495 -7.282,7.113 -31.107,29.557 -39.76,31.573zm-21.949 -27.436c-2.126,-1.558 -12.952,-13.952 -14.632,-16.461l24.319 -23.237c3.171,-2.667 3.061,-2.069 6.227,-4.746 2.839,-2.402 3.749,-3.803 6.58,-6.224 5.687,-4.862 8.987,-8.328 14.087,-9.69 2.068,7.743 8.795,10.474 12.803,16.461 -3.932,5.873 -45.064,41.005 -49.384,43.897zm25.607 -69.504c-14.83,9.931 -40.55,36.426 -51.213,42.068 -14.091,-21.042 -16.345,-17.78 -23.778,-12.803 0.596,7.156 3.54,8.197 8.074,13.875l53.842 61.388c4.468,5.582 17.791,21.835 24.049,23.506 1.322,-5.677 2.336,-5.298 3.658,-10.975 -3.217,-4.804 -4.218,-5.12 -7.316,-10.974 7.026,-1.876 42.81,-36.44 51.213,-42.068 3.787,5.655 5.471,4.064 7.317,10.974l5.487 0c0.699,-2.621 -0.07,-3.66 5.453,-5.252l-18.686 -25.412c-5.324,-5.318 -6.361,-7.073 -11.086,-12.692l-43.791 -49.49c-4.967,-5.013 -6.366,-8.928 -14.198,-9.58 -9.009,13.455 2.234,10.916 10.975,27.435z"/>
   <path class="fil0" d="M521.17 577.978c-3.995,-5.965 -10.638,-12.325 -14.633,-18.29l49.385 -42.068c6.524,4.368 10.852,9.318 14.632,16.461l-49.384 43.897zm21.948 -80.477c0.779,9.356 1.39,2.476 3.658,10.973 -5.449,1.456 -19.246,15.023 -24.22,19.677l-25.164 20.563c-7.334,-4.912 -9.827,-9.286 -14.632,-16.462 4.314,-2.888 5.413,-4.865 9.929,-8.361 5.407,-4.186 6.538,-4.475 10.19,-9.929 -25.605,0.57 -22.484,9.056 -30.886,7.153 -0.209,-0.047 0.261,-1.17 -5.695,-1.666 7.395,31.743 -3.648,8.331 23.506,42.34l40.981 46.862c5.48,6.795 5.633,6.066 14.162,4.079 0,-14.338 -6.911,-14.076 -14.632,-25.606 8.22,-5.505 39.228,-35.267 49.384,-42.068 2.813,1.883 25.607,29.797 25.607,9.145 0,-4.71 -21.416,-25.607 -25.607,-31.094 -4.356,-5.703 -8.449,-8.929 -12.803,-14.633 -4.189,-5.486 -8.849,-10.759 -14.633,-14.632 -3.81,2.017 -4.306,2.5 -9.145,3.659z"/>
   <path class="fil0" d="M409.598 223.144c3.984,5.95 3.018,4.074 9.145,7.316 0,18.935 3.388,89.725 -1.829,100.597l29.265 0c0,-9.184 -1.918,-12.624 -1.872,-23.735l0.043 -76.862c5.955,-1.59 7.555,-3.19 9.145,-9.146 -13.37,-7.074 -33.313,-9.328 -43.897,1.83z"/>
   <path class="fil0" d="M638.229 427.997c-3.85,-14.416 -24.575,-11.375 -51.205,-12.812l-49.166 -0.593c-13.729,-0.532 0.312,15.03 14.296,19.001 9.415,2.673 44.702,1.27 62.633,3.351 12.944,1.502 18.641,-1.779 23.442,-8.947z"/>
   <path class="fil0" d="M491.905 353.006c5.312,3.557 2.455,3.7 9.145,5.487 3.826,-2.562 4.187,-3.935 7.071,-7.562 2.694,-3.389 4.835,-5.294 8.015,-8.446 8.382,-8.308 41.013,-44.065 48.931,-46.18 4.98,9.414 3.658,10.142 3.658,23.778 4.931,-3.613 7.316,-9.805 7.316,-18.29 0,-8.311 -3.906,-9.541 -7.316,-14.633 9.176,-13.703 13.658,-14.869 18.29,-34.751 -6.075,1.622 -13.982,13.069 -24.235,23.32 -8.468,8.467 -16.68,15.983 -24.714,24.669 -4.312,4.661 -6.328,7.86 -10.948,12.83 -4.853,5.22 -6.468,8.383 -11.877,13.73 -8.688,8.59 -16.647,16.058 -23.336,26.048z"/>
   <path class="fil0" d="M281.565 429.826l47.555 1.829c2.152,-9.237 3.613,-19.718 7.316,-27.436 -57.237,-2.692 -51.865,-6.194 -53.342,8.846 -0.606,6.172 -1.529,9.3 -1.529,16.761z"/>
   <path class="fil0" d="M285.223 577.978l0 5.487c12.102,-0.269 15.169,-6.42 20.892,-13.859 7.301,-9.493 15.654,-15.022 26.391,-28.481 2.972,-3.726 5.483,-5.879 8.959,-9.331 7.837,-7.787 10.789,-10.507 16.92,-19.661l-12.719 -3.914c-5.932,9.068 -22.405,25.159 -30.757,33.6 -4.509,4.557 -29.686,31.31 -29.686,36.159z"/>
  </g>
 </g>
</svg>
