<?xml version="1.0" encoding="UTF-8"?>
<!DOCTYPE svg PUBLIC "-//W3C//DTD SVG 1.1//EN" "http://www.w3.org/Graphics/SVG/1.1/DTD/svg11.dtd">
<!-- Creator: CorelDRAW 2018 (64 Bit Versión de evaluación) -->
<svg xmlns="http://www.w3.org/2000/svg" xml:space="preserve" width="81px" height="42px" version="1.1" style="shape-rendering:geometricPrecision; text-rendering:geometricPrecision; image-rendering:optimizeQuality; fill-rule:evenodd; clip-rule:evenodd"
viewBox="0 0 0.638 0.327"
 xmlns:xlink="http://www.w3.org/1999/xlink">
 <defs>
  <style type="text/css">
   <![CDATA[
    .fil0 {fill:#FEFEFE;fill-rule:nonzero}
   ]]>
  </style>
 </defs>
 <g id="Capa_x0020_1">
  <metadata id="CorelCorpID_0Corel-Layer"/>
  <path class="fil0" d="M0.606 0.211c-0.007,0.009 -0.017,0.014 -0.028,0.015 -0.007,0 -0.023,0 -0.04,0 -0.007,-0.021 -0.025,-0.037 -0.047,-0.044 0,-0.002 0,-0.005 0,-0.007 0,-0.046 -0.038,-0.084 -0.084,-0.084 -0.015,0 -0.03,0.004 -0.043,0.012 -0.002,-0.008 -0.004,-0.015 -0.007,-0.022 -0.001,-0.001 -0.002,-0.003 -0.003,-0.004 0.002,-0.031 0.026,-0.055 0.058,-0.056l0.003 0c0.033,0 0.059,0.024 0.061,0.056 0,0.001 0,0.002 0,0.005l-0.002 0.026 0.019 -0.019c0.009,-0.009 0.022,-0.014 0.035,-0.014 0.027,0 0.048,0.021 0.048,0.048 0,0.004 0,0.007 -0.001,0.01l-0.002 0.01 0.011 0.002c0.018,0.003 0.032,0.018 0.033,0.035 0,0.011 -0.003,0.022 -0.011,0.031zm-0.085 0.035c0.001,0.014 -0.004,0.029 -0.013,0.04 -0.01,0.012 -0.023,0.019 -0.037,0.02 -0.027,0.001 -0.135,-0.001 -0.135,-0.001 -0.048,0 -0.12,0 -0.124,0l0 0.005 0 -0.005c0,0 -0.05,-0.001 -0.09,-0.001 -0.019,0 -0.036,0 -0.044,0.001l-0.003 0c-0.03,0 -0.054,-0.022 -0.054,-0.049 -0.001,-0.031 0.017,-0.042 0.049,-0.05l0.008 -0.002 0 -0.012c-0.001,-0.002 -0.001,-0.004 -0.001,-0.006 0,-0.035 0.029,-0.063 0.064,-0.063 0.01,0 0.02,0.002 0.03,0.008l0.016 0.009 0 -0.018c-0.001,-0.042 0.032,-0.076 0.075,-0.078l0.004 0c0.02,0 0.038,0.007 0.052,0.019 0.008,0.007 0.015,0.015 0.019,0.025 0.005,0.009 0.007,0.018 0.008,0.028 0,0.002 0,0.003 -0.001,0.007l0 0.026 0.018 -0.018c0.012,-0.013 0.028,-0.019 0.045,-0.019 0.035,0 0.064,0.028 0.064,0.063 0,0.004 -0.001,0.009 -0.002,0.013l-0.002 0.01 0.011 0.002c0.016,0.003 0.03,0.013 0.037,0.026 0.004,0.006 0.006,0.013 0.006,0.02 0,0 0,0 0,0zm0.076 -0.119c0,-0.001 0,-0.002 0,-0.004 0,-0.038 -0.031,-0.069 -0.069,-0.069 -0.012,0 -0.023,0.003 -0.033,0.009 -0.008,-0.036 -0.041,-0.063 -0.08,-0.063l-0.004 0c-0.035,0.002 -0.062,0.024 -0.073,0.054 -0.019,-0.02 -0.047,-0.032 -0.077,-0.031 -0.049,0.003 -0.087,0.038 -0.094,0.084 -0.009,-0.003 -0.017,-0.005 -0.026,-0.005 -0.047,0 -0.084,0.038 -0.084,0.084 0,0.001 0,0.002 0,0.003 -0.024,0.006 -0.057,0.02 -0.057,0.067 0,0.038 0.034,0.069 0.075,0.069l0.004 0c0.026,-0.001 0.133,0 0.133,0l0 -0.001c0,0 0,0 0,0l0 0.001 0 -0.001c0.015,0.002 0.047,0.002 0.124,0.002 0,0 0.058,0.001 0.099,0.001 0.016,0 0.029,0 0.037,-0.001 0.019,-0.001 0.038,-0.01 0.051,-0.027 0.013,-0.015 0.02,-0.034 0.019,-0.053 0,0 0,0 0,0 0.003,0 0.006,0 0.008,0 0.013,0 0.023,0 0.029,0 0.017,-0.001 0.032,-0.009 0.043,-0.022 0.011,-0.013 0.016,-0.029 0.015,-0.045 -0.001,-0.024 -0.017,-0.044 -0.04,-0.052z"/>
 </g>
</svg>
