<?xml version="1.0" encoding="UTF-8"?>
<!DOCTYPE svg PUBLIC "-//W3C//DTD SVG 1.1//EN" "http://www.w3.org/Graphics/SVG/1.1/DTD/svg11.dtd">
<!-- Creator: CorelDRAW 2018 (64 Bit Versión de evaluación) -->
<svg xmlns="http://www.w3.org/2000/svg" xml:space="preserve" width="82px" height="66px" version="1.1" style="shape-rendering:geometricPrecision; text-rendering:geometricPrecision; image-rendering:optimizeQuality; fill-rule:evenodd; clip-rule:evenodd"
viewBox="0 0 0.414 0.331"
 xmlns:xlink="http://www.w3.org/1999/xlink">
 <defs>
  <style type="text/css">
   <![CDATA[
    .fil0 {fill:#BDBFC1;fill-rule:nonzero}
   ]]>
  </style>
 </defs>
 <g id="Capa_x0020_1">
  <metadata id="CorelCorpID_0Corel-Layer"/>
  <g id="_1782388830608">
   <path class="fil0" d="M0.152 0.114c0.002,0.002 0.006,0.003 0.009,0 0.002,-0.002 0.002,-0.006 0,-0.008l-0.046 -0.054c-0.003,-0.002 -0.007,-0.002 -0.009,0 -0.003,0.002 -0.003,0.006 -0.001,0.009l0.047 0.053z"/>
   <path class="fil0" d="M0.232 0.083c0.003,0 0.006,-0.003 0.006,-0.006l-0.001 -0.071c0,-0.003 -0.003,-0.006 -0.006,-0.006 -0.004,0 -0.006,0.003 -0.006,0.006l0 0.071c0,0.003 0.003,0.006 0.007,0.006z"/>
   <path class="fil0" d="M0.392 0.269l-0.062 -0.033c-0.003,-0.002 -0.007,0 -0.009,0.003 -0.001,0.003 0,0.006 0.003,0.008l0.062 0.033c0.004,0.002 0.007,0 0.009,-0.003 0.002,-0.003 0,-0.007 -0.003,-0.008z"/>
   <path class="fil0" d="M0.407 0.15l-0.07 0.008c-0.004,0.001 -0.006,0.004 -0.006,0.007 0.001,0.004 0.004,0.006 0.007,0.006l0.07 -0.008c0.004,-0.001 0.006,-0.004 0.006,-0.007 0,-0.004 -0.004,-0.006 -0.007,-0.006z"/>
   <path class="fil0" d="M0.304 0.107l0.043 -0.055c0.002,-0.003 0.002,-0.007 -0.001,-0.009 -0.002,-0.002 -0.006,-0.002 -0.009,0.001l-0.043 0.056c-0.002,0.002 -0.002,0.006 0.001,0.008 0.003,0.003 0.007,0.002 0.009,-0.001z"/>
   <path class="fil0" d="M0.279 0.241c-0.002,-0.025 -0.022,-0.045 -0.048,-0.045 -0.008,0 -0.017,0.002 -0.024,0.007 -0.004,-0.023 -0.023,-0.041 -0.047,-0.045 -0.001,0 -0.001,0 -0.002,0 0.011,-0.029 0.039,-0.05 0.071,-0.05 0.042,0 0.076,0.034 0.076,0.076 0,0.023 -0.01,0.043 -0.026,0.057zm0.017 0.044c0,0.008 -0.003,0.017 -0.009,0.023 -0.005,0.006 -0.012,0.01 -0.02,0.01 -0.015,0.001 -0.076,0 -0.076,0 -0.027,0 -0.068,-0.001 -0.07,-0.001l0 0.003 0 -0.003c0,0 -0.028,0 -0.051,0 -0.011,0 -0.02,0 -0.025,0l-0.002 0c-0.017,0 -0.03,-0.012 -0.03,-0.026 0,-0.018 0.009,-0.024 0.027,-0.028l0.005 -0.002 0 -0.005 0 -0.002c0,-0.001 0,-0.002 0,-0.003 0,-0.02 0.016,-0.036 0.035,-0.036 0.006,0 0.012,0.002 0.017,0.005l0.01 0.005 0 -0.011c0,-0.014 0.007,-0.027 0.018,-0.035 0.002,0 0.003,-0.001 0.004,-0.003 0.005,-0.002 0.009,-0.004 0.015,-0.005 0.001,0 0.003,0 0.005,0l0.002 0c0.002,0 0.004,0 0.006,0 0.021,0.002 0.037,0.019 0.038,0.04 0,0.001 0,0.002 0,0.004l0 0.016 0.011 -0.011c0.007,-0.007 0.016,-0.011 0.025,-0.011 0.02,0 0.036,0.016 0.036,0.035 0,0.003 -0.001,0.005 -0.001,0.007 0,0 0,0 0,0l-0.001 0.007 0.006 0.001c0.002,0 0.004,0.001 0.005,0.001 0.011,0.004 0.019,0.014 0.02,0.025zm0.022 -0.101c0,-0.049 -0.04,-0.089 -0.089,-0.089 -0.039,0 -0.073,0.027 -0.084,0.063 0,0 0.001,0 0.001,0l0.003 0c0,0 0.001,0 0.001,0l-0.002 0c0,0 -0.001,0 -0.001,0 -0.01,0.001 -0.019,0.004 -0.027,0.009l-0.066 -0.006c-0.004,0 -0.007,0.002 -0.007,0.006 0,0.003 0.002,0.006 0.006,0.007l0.054 0.004c-0.006,0.008 -0.011,0.017 -0.012,0.027 -0.005,-0.002 -0.01,-0.003 -0.015,-0.003 -0.026,0 -0.048,0.022 -0.048,0.049 0,0 0,0 0,0.001 -0.013,0.003 -0.032,0.011 -0.032,0.039 0,0.021 0.019,0.039 0.043,0.039l0.002 0c0.015,-0.001 0.076,0 0.076,0l0 -0.001c0,0 0,0 0,0l0 0.001 0 -0.001c0.008,0.001 0.027,0.001 0.07,0.001 0,0 0.033,0.001 0.056,0.001 0.009,0 0.017,0 0.021,0 0.011,-0.001 0.021,-0.006 0.028,-0.014 0.009,-0.009 0.013,-0.021 0.012,-0.033 0,-0.013 -0.008,-0.025 -0.02,-0.032 0,0 -0.001,-0.001 -0.001,-0.001 0.019,-0.016 0.031,-0.04 0.031,-0.067z"/>
  </g>
 </g>
</svg>
