<?xml version="1.0" encoding="UTF-8"?>
<!DOCTYPE svg PUBLIC "-//W3C//DTD SVG 1.1//EN" "http://www.w3.org/Graphics/SVG/1.1/DTD/svg11.dtd">
<!-- Creator: CorelDRAW 2018 (64 Bit Versión de evaluación) -->
<svg xmlns="http://www.w3.org/2000/svg" xml:space="preserve" width="82px" height="79px" version="1.1" style="shape-rendering:geometricPrecision; text-rendering:geometricPrecision; image-rendering:optimizeQuality; fill-rule:evenodd; clip-rule:evenodd"
viewBox="0 0 0.394 0.382"
 xmlns:xlink="http://www.w3.org/1999/xlink">
 <defs>
  <style type="text/css">
   <![CDATA[
    .fil0 {fill:#FFCC29;fill-rule:nonzero}
   ]]>
  </style>
 </defs>
 <g id="Capa_x0020_1">
  <metadata id="CorelCorpID_0Corel-Layer"/>
  <g id="_1782289968688">
   <path class="fil0" d="M0.198 0.118c-0.044,0 -0.08,0.036 -0.08,0.08 0,0.044 0.036,0.08 0.08,0.08 0.044,0 0.08,-0.036 0.08,-0.08 0,-0.044 -0.036,-0.08 -0.08,-0.08zm0 0.177c-0.053,0 -0.097,-0.044 -0.097,-0.097 0,-0.053 0.044,-0.097 0.097,-0.097 0.053,0 0.097,0.044 0.097,0.097 0,0.053 -0.044,0.097 -0.097,0.097z"/>
   <path class="fil0" d="M0.123 0.114c0.002,0.002 0.002,0.007 -0.001,0.009l0 0c-0.003,0.003 -0.007,0.002 -0.01,-0.001l-0.05 -0.057c-0.002,-0.003 -0.002,-0.007 0.001,-0.009l0 0c0.003,-0.003 0.007,-0.002 0.01,0l0.05 0.058z"/>
   <path class="fil0" d="M0.205 0.083c0,0.003 -0.003,0.006 -0.007,0.006l0 0c-0.004,0 -0.007,-0.003 -0.007,-0.006l0 -0.076c0,-0.004 0.003,-0.007 0.007,-0.007l0 0c0.003,0 0.006,0.003 0.006,0.007l0.001 0.076z"/>
   <path class="fil0" d="M0.083 0.179c0.004,0.001 0.006,0.004 0.006,0.008l0 0c0,0.003 -0.003,0.006 -0.007,0.006l-0.076 -0.006c-0.004,-0.001 -0.006,-0.004 -0.006,-0.008l0 0c0,-0.003 0.004,-0.006 0.007,-0.006l0.076 0.006z"/>
   <path class="fil0" d="M0.095 0.251c0.003,-0.002 0.007,-0.001 0.009,0.002l0 0c0.002,0.004 0.002,0.008 -0.002,0.01l-0.064 0.04c-0.003,0.002 -0.007,0.001 -0.009,-0.002l0 0c-0.002,-0.003 -0.001,-0.007 0.002,-0.009l0.064 -0.041z"/>
   <path class="fil0" d="M0.153 0.301c0.001,-0.003 0.005,-0.005 0.008,-0.004l0 0c0.004,0.002 0.005,0.006 0.004,0.009l-0.027 0.071c-0.001,0.004 -0.005,0.005 -0.008,0.004l0 0c-0.004,-0.001 -0.006,-0.005 -0.004,-0.008l0.027 -0.072z"/>
   <path class="fil0" d="M0.298 0.266c-0.004,-0.002 -0.005,-0.006 -0.003,-0.009l0 0c0.001,-0.004 0.006,-0.005 0.009,-0.003l0.067 0.035c0.003,0.002 0.005,0.006 0.003,0.009l0 0c-0.002,0.003 -0.006,0.005 -0.009,0.003l-0.067 -0.035z"/>
   <path class="fil0" d="M0.313 0.184c-0.004,0 -0.007,-0.003 -0.007,-0.006l0 0c-0.001,-0.004 0.002,-0.007 0.005,-0.008l0.076 -0.009c0.004,0 0.007,0.003 0.007,0.006l0 0c0.001,0.004 -0.002,0.007 -0.006,0.008l-0.075 0.009z"/>
   <path class="fil0" d="M0.263 0.373c0.002,0.003 0,0.007 -0.004,0.009l0 0c-0.003,0.001 -0.007,-0.001 -0.008,-0.005l-0.025 -0.071c-0.002,-0.004 0,-0.008 0.004,-0.009l0 0c0.003,-0.001 0.007,0.001 0.008,0.004l0.025 0.072z"/>
   <path class="fil0" d="M0.276 0.115c-0.002,0.003 -0.007,0.004 -0.01,0.002l0 0c-0.002,-0.003 -0.003,-0.007 -0.001,-0.01l0.047 -0.06c0.002,-0.003 0.007,-0.003 0.01,-0.001l0 0c0.002,0.002 0.003,0.007 0.001,0.01l-0.047 0.059z"/>
  </g>
 </g>
</svg>
